<svg width="7" height="12" viewBox="0 0 7 12" fill="none" xmlns="http://www.w3.org/2000/svg">
<path d="M0.425187 6.00015C0.425187 5.90015 0.441853 5.80848 0.475187 5.72515C0.50852 5.64182 0.566853 5.55848 0.650187 5.47515L5.60019 0.525149C5.73352 0.391816 5.91269 0.329316 6.13769 0.337649C6.36269 0.345983 6.54185 0.416816 6.67519 0.550149C6.84185 0.716816 6.91269 0.895983 6.88769 1.08765C6.86269 1.27932 6.78352 1.45015 6.65019 1.60015L2.25019 6.00015L6.65019 10.4001C6.78352 10.5335 6.85852 10.7126 6.87519 10.9376C6.89185 11.1626 6.81685 11.3418 6.65019 11.4751C6.51685 11.6418 6.34185 11.7126 6.12519 11.6876C5.90852 11.6626 5.72519 11.5835 5.57519 11.4501L0.650187 6.52515C0.566853 6.44182 0.50852 6.35848 0.475187 6.27515C0.441853 6.19182 0.425187 6.10015 0.425187 6.00015Z" fill="white"/>
</svg>
