<svg width="31" height="17" viewBox="0 0 31 17" fill="none" xmlns="http://www.w3.org/2000/svg">
<path d="M11.305 12.0863C12.3802 9.51234 11.1651 6.55414 8.59114 5.479C6.01715 4.40387 3.05896 5.61892 1.98382 8.19291C0.90868 10.7669 2.12374 13.7251 4.69772 14.8002C7.2717 15.8754 10.2299 14.6603 11.305 12.0863Z" fill="#F5CD70"/>
<path d="M26 15C28.7614 15 31 12.7614 31 10C31 7.23858 28.7614 5 26 5C23.2386 5 21 7.23858 21 10C21 12.7614 23.2386 15 26 15Z" fill="#F5CD70"/>
<path d="M5.5 15C4.41202 15 3.34846 14.6773 2.4439 14.0728C1.53933 13.4682 0.834386 12.609 0.418234 11.6037C0.00208287 10.5985 -0.106568 9.49239 0.10601 8.42538C0.318587 7.35836 0.842853 6.37836 1.61248 5.60935C2.38212 4.84034 3.36253 4.31686 4.42971 4.10514C5.4969 3.89342 6.60291 4.00298 7.60782 4.41994C8.61274 4.8369 9.47142 5.54254 10.0752 6.44759C10.6791 7.35264 11.0009 8.41644 11 9.50442C10.9977 10.962 10.4173 12.3591 9.38623 13.3894C8.35516 14.4196 6.95757 14.9988 5.5 15ZM5.5 4.79646C4.5683 4.79383 3.65675 5.06772 2.88079 5.58344C2.10482 6.09915 1.49932 6.83352 1.14095 7.69355C0.782576 8.55358 0.687456 9.50061 0.867612 10.4147C1.04777 11.3289 1.49511 12.169 2.153 12.8287C2.81088 13.4885 3.64974 13.9382 4.56336 14.1209C5.47697 14.3037 6.42427 14.2112 7.28531 13.8553C8.14635 13.4993 8.88242 12.8959 9.40032 12.1214C9.91823 11.3469 10.1947 10.4361 10.1947 9.50442C10.1947 8.25768 9.70064 7.06174 8.82072 6.17851C7.9408 5.29527 6.74674 4.79672 5.5 4.79204V4.79646Z" fill="#5DA0FB"/>
<path d="M24.5 15C23.412 15 22.3485 14.6773 21.4439 14.0728C20.5393 13.4682 19.8344 12.609 19.4182 11.6037C19.0021 10.5985 18.8934 9.49239 19.106 8.42538C19.3186 7.35836 19.8428 6.37836 20.6125 5.60935C21.3821 4.84034 22.3625 4.31686 23.4297 4.10514C24.4969 3.89342 25.6029 4.00298 26.6078 4.41994C27.6127 4.8369 28.4714 5.54254 29.0752 6.44759C29.6791 7.35264 30.0009 8.41644 30 9.50442C29.9977 10.962 29.4173 12.3591 28.3862 13.3894C27.3552 14.4196 25.9576 14.9988 24.5 15ZM24.5 4.79646C23.5688 4.79646 22.6586 5.07258 21.8844 5.5899C21.1102 6.10721 20.5067 6.8425 20.1504 7.70276C19.7941 8.56303 19.7008 9.50964 19.8825 10.4229C20.0642 11.3362 20.5125 12.175 21.171 12.8335C21.8294 13.4919 22.6683 13.9403 23.5815 14.1219C24.4948 14.3036 25.4414 14.2103 26.3017 13.854C27.1619 13.4977 27.8972 12.8942 28.4145 12.12C28.9318 11.3458 29.208 10.4356 29.208 9.50442C29.208 8.25539 28.7121 7.05745 27.8293 6.17383C26.9465 5.29021 25.749 4.79321 24.5 4.79204V4.79646Z" fill="#5DA0FB"/>
<path d="M5.39579 9.99565C5.32925 9.99634 5.26368 9.97987 5.20564 9.9479C5.11422 9.89837 5.0463 9.81555 5.01653 9.71731C4.98675 9.61906 4.9975 9.51327 5.04647 9.42273L10.1447 0.212676C10.1568 0.188007 10.1717 0.164717 10.1889 0.14323C10.2029 0.125209 10.2192 0.109145 10.2376 0.0954872C10.3071 0.0376064 10.3942 0.0040187 10.4852 7.11954e-07H20.5004C20.5776 -0.000144735 20.6531 0.0219981 20.7176 0.0636716C20.7821 0.105345 20.8326 0.164713 20.863 0.234379L24.9664 9.45746C24.9929 9.51647 25.0041 9.58107 24.9987 9.64538C24.9933 9.70968 24.9716 9.77164 24.9355 9.82559C24.8995 9.87955 24.8502 9.92377 24.7923 9.95424C24.7343 9.9847 24.6695 10.0004 24.6038 9.99999H14.5886C14.5121 9.99942 14.4374 9.97748 14.3732 9.93674C14.309 9.896 14.2579 9.83815 14.226 9.76996L10.4542 1.2717L5.7451 9.796C5.71034 9.85687 5.65962 9.90749 5.59819 9.9426C5.53676 9.97771 5.46687 9.99603 5.39579 9.99565ZM14.8494 9.21874H23.998L20.2572 0.772569H11.0998L14.8494 9.21874Z" fill="#5DA0FB"/>
</svg>
