<svg width="53" height="30" viewBox="0 0 53 30" fill="none" xmlns="http://www.w3.org/2000/svg">
<path d="M24.1544 3.00292C21.3241 2.94843 18.5291 3.65769 16.0463 5.06041C13.5636 6.46313 11.4793 8.51061 10 11H38C35.8214 6.17394 30.7337 3.00292 24.1544 3.00292Z" fill="#F5CD70"/>
<path d="M52.606 23.9995H46.6687C46.5708 24.001 46.4759 23.9658 46.403 23.9008C46.3302 23.8359 46.2848 23.7461 46.2759 23.6494C46.0994 22.4635 45.6947 21.3224 45.084 20.288C43.7597 18.0995 41.7335 17.0053 39.0232 17.0053C36.3746 17.0053 34.397 18.1083 33.1124 20.2836C32.5145 21.3231 32.1192 22.4649 31.947 23.6494C31.9362 23.7453 31.8902 23.834 31.8178 23.8985C31.7453 23.9631 31.6515 23.999 31.5541 23.9995H21.9883C21.8907 24 21.7963 23.9644 21.7237 23.8997C21.6511 23.8349 21.6053 23.7457 21.5955 23.6494C21.4152 22.4748 21.009 21.3456 20.3992 20.323C19.0749 18.1652 17.0576 17.071 14.3692 17.071C11.6809 17.071 9.73864 18.1696 8.432 20.3405C7.8286 21.3559 7.42561 22.4758 7.24455 23.6406C7.23366 23.7361 7.1875 23.8243 7.11497 23.8882C7.04244 23.952 6.94866 23.987 6.85168 23.9864H2.46386C1.74762 23.9919 1.05169 23.7505 0.495079 23.3036C0.332596 23.1446 0.204855 22.9541 0.1198 22.744C0.0347448 22.5339 -0.00580156 22.3087 0.000678852 22.0825C-0.0096028 21.7112 0.0971254 21.346 0.306005 21.0377C0.514884 20.7294 0.815519 20.4933 1.16606 20.3624C1.39936 20.2652 1.64407 20.1976 1.89442 20.161C2.55353 15.0877 4.77662 10.3399 8.25985 6.56662C10.1997 4.4677 12.5643 2.79809 15.1991 1.66682C17.834 0.535544 20.6799 -0.0319521 23.551 0.00138834C30.2299 0.00138834 34.547 2.62748 36.9882 4.86404C38.4929 6.20102 39.7377 7.80019 40.6609 9.58225C46.6378 11.333 49.6749 14.9964 51.1669 17.7975C52.1537 19.595 52.7761 21.5666 52.9989 23.6012C53.003 23.6547 52.9958 23.7085 52.9775 23.7591C52.9592 23.8096 52.9304 23.8557 52.8929 23.8945C52.8547 23.9303 52.8096 23.9581 52.7603 23.9762C52.711 23.9942 52.6585 24.0022 52.606 23.9995ZM47.0086 23.2336H52.1645C51.8909 21.4501 51.3132 19.7258 50.4562 18.1346C48.3638 14.2348 44.9383 11.5956 40.2724 10.2869C40.2156 10.2712 40.163 10.2429 40.1187 10.2043C40.0744 10.1656 40.0394 10.1176 40.0164 10.0637C39.1298 8.30171 37.9116 6.724 36.4275 5.41551C34.0924 3.30151 29.9606 0.784843 23.551 0.784843C20.7874 0.755905 18.0487 1.30498 15.5136 2.39624C12.9785 3.48751 10.7038 5.09645 8.83812 7.1181C5.39987 10.847 3.23703 15.5572 2.65809 20.5768C2.64737 20.672 2.60201 20.7601 2.5305 20.8246C2.459 20.889 2.36625 20.9254 2.26963 20.927C2.11955 20.927 0.799667 20.9882 0.799667 22.1C0.794146 22.222 0.814466 22.3439 0.859322 22.4577C0.904178 22.5716 0.972578 22.6748 1.06011 22.7609C1.46563 23.0673 1.96283 23.2306 2.47269 23.2248H6.52944C6.751 22.0732 7.169 20.9676 7.76545 19.9553C8.42898 18.8065 9.3965 17.8592 10.5635 17.2159C11.7305 16.5726 13.0525 16.2576 14.3869 16.305C18.117 16.305 20.099 18.2921 21.1055 19.9597C21.7074 20.9709 22.1257 22.079 22.3415 23.2336H31.2319C31.4388 22.0735 31.8449 20.9573 32.4326 19.9334C33.0835 18.7705 34.047 17.8095 35.2161 17.1573C36.3851 16.5051 37.7137 16.1874 39.0541 16.2394C42.8106 16.2394 44.7927 18.2484 45.8079 19.9291C46.3983 20.9532 46.8046 22.0714 47.0086 23.2336Z" fill="#5DA0FB"/>
<path d="M14.0043 30C12.8174 30.0009 11.657 29.6497 10.6697 28.9909C9.68246 28.3321 8.91276 27.3954 8.45797 26.2991C8.00318 25.2028 7.88374 23.9963 8.11476 22.8321C8.34579 21.6679 8.91689 20.5984 9.75584 19.7589C10.5948 18.9193 11.6639 18.3475 12.8279 18.1156C13.9919 17.8837 15.1985 18.0023 16.2951 18.4563C17.3917 18.9103 18.329 19.6793 18.9885 20.6661C19.648 21.6529 20 22.8131 20 24C19.9989 25.5902 19.3669 27.115 18.2429 28.2399C17.1189 29.3647 15.5945 29.9977 14.0043 30ZM14.0043 18.777C12.9701 18.7761 11.9588 19.0821 11.0985 19.6561C10.2382 20.2302 9.56758 21.0466 9.1714 22.0019C8.77522 22.9573 8.67134 24.0087 8.8729 25.0231C9.07446 26.0375 9.5724 26.9693 10.3037 27.7006C11.035 28.4319 11.9669 28.9299 12.9813 29.1314C13.9957 29.333 15.0471 29.2291 16.0024 28.8329C16.9578 28.4367 17.7741 27.7661 18.3482 26.9058C18.9222 26.0455 19.2282 25.0342 19.2273 24C19.2251 22.6155 18.674 21.2883 17.695 20.3093C16.716 19.3303 15.3888 18.7793 14.0043 18.777Z" fill="#5DA0FB"/>
<path d="M39.0043 30C37.8174 30.0009 36.657 29.6497 35.6697 28.9909C34.6825 28.3321 33.9128 27.3954 33.458 26.2991C33.0032 25.2028 32.8837 23.9963 33.1148 22.8321C33.3458 21.6679 33.9169 20.5984 34.7558 19.7589C35.5948 18.9193 36.6639 18.3475 37.8279 18.1156C38.9919 17.8837 40.1985 18.0023 41.2951 18.4563C42.3917 18.9103 43.329 19.6793 43.9885 20.6661C44.648 21.6529 45 22.8131 45 24C44.9989 25.5902 44.3669 27.115 43.2429 28.2399C42.1189 29.3647 40.5945 29.9977 39.0043 30ZM39.0043 18.777C37.9701 18.7761 36.9588 19.0821 36.0985 19.6561C35.2382 20.2302 34.5676 21.0466 34.1714 22.0019C33.7752 22.9573 33.6713 24.0087 33.8729 25.0231C34.0745 26.0375 34.5724 26.9693 35.3037 27.7006C36.035 28.4319 36.9669 28.9299 37.9813 29.1314C38.9957 29.333 40.0471 29.2291 41.0024 28.8329C41.9578 28.4367 42.7741 27.7661 43.3482 26.9058C43.9222 26.0455 44.2282 25.0342 44.2273 24C44.2251 22.6155 43.674 21.2883 42.695 20.3093C41.716 19.3303 40.3888 18.7793 39.0043 18.777Z" fill="#5DA0FB"/>
</svg>
