<svg width="51" height="52" viewBox="0 0 51 52" fill="none" xmlns="http://www.w3.org/2000/svg">
<circle cx="12.5" cy="40.5" r="11.5" fill="white"/>
<circle cx="39.5" cy="40.5" r="11.5" fill="white"/>
<path d="M17 11.9413V8.16843C17 5.77896 15.4372 1 9.18605 1C2.93488 1 1.12403 5.77896 1 8.16843C1 12.6959 1 23.2599 1 29.2964C1 35.333 4.47287 38.3513 6.2093 39.1059C7.3062 39.5706 9.7 40.5 10.5 40.5" stroke="black"/>
<path d="M45 11.9413V8.16843C45 5.77896 43.4372 1 37.186 1C30.9349 1 29.124 5.77896 29 8.16843C29 12.6959 29 23.2599 29 29.2964C29 35.333 32.4729 38.3513 34.2093 39.1059C35.3062 39.5706 37.7 40.5 38.5 40.5" stroke="black"/>
</svg>
