<svg width="16" height="21" viewBox="0 0 16 21" fill="none" xmlns="http://www.w3.org/2000/svg">
<path d="M8.00222 10.25C8.48407 10.25 8.89583 10.0784 9.2375 9.73528C9.57917 9.39214 9.75 8.97964 9.75 8.49778C9.75 8.01593 9.57843 7.60417 9.23528 7.2625C8.89214 6.92083 8.47964 6.75 7.99778 6.75C7.51593 6.75 7.10417 6.92158 6.7625 7.26472C6.42083 7.60786 6.25 8.02036 6.25 8.50222C6.25 8.98407 6.42158 9.39583 6.76472 9.7375C7.10786 10.0792 7.52036 10.25 8.00222 10.25ZM8 20.5C5.31667 18.2167 3.3125 16.0958 1.9875 14.1375C0.6625 12.1792 0 10.3667 0 8.7C0 6.2 0.804167 4.20833 2.4125 2.725C4.02083 1.24167 5.88333 0.5 8 0.5C10.1167 0.5 11.9792 1.24167 13.5875 2.725C15.1958 4.20833 16 6.2 16 8.7C16 10.3667 15.3375 12.1792 14.0125 14.1375C12.6875 16.0958 10.6833 18.2167 8 20.5Z" fill="#9D9D9F"/>
</svg>
