<svg width="732" height="233" viewBox="0 0 732 233" fill="none" xmlns="http://www.w3.org/2000/svg">
<rect width="732" height="233" fill="white"/>
<g clip-path="url(#clip0_1_2612)">
<path d="M374.696 90.5228H375.746V154.34C375.736 158.224 374.199 161.946 371.468 164.693C368.737 167.44 365.035 168.989 361.172 169H359.416V105.861C359.424 101.792 361.036 97.892 363.9 95.0167C366.764 92.1414 370.648 90.5256 374.696 90.5228Z" fill="#00B4FF"/>
<path d="M292.531 63H293.587V123.383L321.855 94.9165C323.274 93.4877 324.96 92.3569 326.818 91.5897C328.676 90.8225 330.668 90.4345 332.677 90.4478C334.685 90.4611 336.667 90.8756 338.515 91.6674C340.362 92.4591 342.036 93.612 343.436 95.0594L344.188 95.839L312.033 128.217C311.538 128.713 311.011 129.173 310.452 129.594C311.19 130.112 311.878 130.696 312.511 131.338L344.178 163.223L342.958 164.495C341.62 165.878 340.022 166.98 338.257 167.736C336.493 168.493 334.595 168.889 332.677 168.902C330.758 168.915 328.855 168.545 327.081 167.812C325.306 167.078 323.695 165.998 322.339 164.633L293.581 135.674V154.133C293.591 158.045 292.066 161.804 289.334 164.59C286.602 167.376 282.888 168.964 278.997 169.01H277.257V78.5765C277.235 74.4764 278.831 70.535 281.694 67.6155C284.558 64.696 288.453 63.0364 292.531 63Z" fill="#00B4FF"/>
<path d="M124 152.967V151.875L124.186 139.611C124.117 138.05 124.203 136.486 124.443 134.942V134.105H124.628C125.431 130.902 127.256 128.053 129.828 125.999C132.4 123.944 135.578 122.798 138.863 122.736H172.882C173.634 122.466 174.294 121.985 174.782 121.35C175.27 120.715 175.566 119.952 175.637 119.153V109.502C175.535 108.928 175.263 108.399 174.859 107.981C174.455 107.564 173.939 107.277 173.371 107.159H139.249C137.239 107.143 135.256 106.727 133.406 105.936C131.556 105.144 129.88 103.993 128.474 102.549C127.068 101.104 125.961 99.3944 125.215 97.5179C124.469 95.6414 124.096 93.6349 124.124 91.6143V90.5228H178.03C180.067 90.6899 182.05 91.2637 183.863 92.2108C185.677 93.1579 187.287 94.459 188.594 96.0383C189.902 97.6176 190.881 99.4431 191.477 101.408C192.074 103.373 192.276 105.438 192.07 107.483V168.469H190.324C188.332 168.464 186.361 168.045 184.538 167.238C182.714 166.431 181.078 165.254 179.729 163.78C178.306 165.428 176.54 166.747 174.561 167.645C172.581 168.542 170.431 168.997 168.259 168.979L139.156 168.698C135.779 168.63 132.515 167.453 129.864 165.348C127.213 163.243 125.322 160.325 124.474 157.037H124.407V156.768C124.105 155.524 123.956 154.248 123.964 152.967H124ZM175.662 133.84C174.275 135.522 172.534 136.874 170.566 137.8C168.597 138.725 166.448 139.201 164.274 139.193L143.975 139.14C143.604 139.114 143.229 139.166 142.879 139.294C142.528 139.421 142.211 139.62 141.942 139.879C141.673 140.138 141.46 140.451 141.319 140.797C141.177 141.143 141.108 141.516 141.118 141.891L141.061 150.19C141.061 152.84 142.998 152.533 144.258 152.533H173.078C173.755 152.518 174.405 152.241 174.885 151.761C175.365 151.28 175.64 150.633 175.657 149.952L175.662 133.84Z" fill="#00B4FF"/>
<path d="M367.412 83.5374C372.763 83.5374 377.101 79.176 377.101 73.796C377.101 68.4159 372.763 64.0546 367.412 64.0546C362.06 64.0546 357.722 68.4159 357.722 73.796C357.722 79.176 362.06 83.5374 367.412 83.5374Z" fill="#00B4FF"/>
<path d="M210.671 148.091L242.538 107.096H218.012C213.984 107.03 210.146 105.365 207.335 102.463C204.523 99.5618 202.969 95.6595 203.01 91.6092V90.5494H257.097C270.123 90.5494 271.33 98.7327 263.949 108.214L229.59 152.384L254.291 152.284C258.205 152.365 261.935 153.974 264.69 156.77C267.445 159.567 269.008 163.331 269.051 167.267V169.021H215.675C208.848 169.021 205.771 167.092 204.4 164.696C201.648 159.857 205.852 154.276 210.671 148.091Z" fill="#00B4FF"/>
<path d="M463.713 115.894H426.6C423.784 115.894 421.08 117.018 419.089 119.02C417.097 121.022 415.979 123.737 415.979 126.568V158.331C415.98 161.161 417.103 163.874 419.094 165.875C421.085 167.876 423.785 169 426.6 169H463.713C463.714 167.793 463.477 166.597 463.018 165.481C462.559 164.366 461.885 163.352 461.036 162.498C460.187 161.644 459.18 160.967 458.071 160.505C456.961 160.042 455.771 159.805 454.57 159.805H430.641C429.318 159.805 428.05 159.276 427.115 158.336C426.179 157.396 425.652 156.12 425.652 154.791V130.57C425.652 129.912 425.783 129.26 426.033 128.652C426.284 128.044 426.651 127.492 427.115 127.026C427.578 126.561 428.126 126.192 428.731 125.941C429.336 125.689 429.986 125.56 430.641 125.561H454.57C455.771 125.561 456.961 125.323 458.071 124.861C459.18 124.399 460.187 123.722 461.036 122.868C461.885 122.014 462.559 121 463.018 119.884C463.477 118.769 463.714 117.573 463.713 116.366V115.894Z" fill="#00B4FF"/>
<path d="M512.291 125.916C513.183 125.916 514.038 126.271 514.67 126.904C515.301 127.537 515.661 128.396 515.663 129.292V155.591C515.661 156.487 515.301 157.346 514.67 157.979C514.038 158.612 513.183 158.967 512.291 158.967H484.589C483.697 158.967 482.842 158.612 482.21 157.979C481.579 157.346 481.225 156.487 481.222 155.591V129.292C481.225 128.396 481.579 127.537 482.21 126.904C482.842 126.271 483.697 125.916 484.589 125.916H512.291ZM512.291 115.894H484.589C481.053 115.894 477.663 117.306 475.163 119.82C472.662 122.333 471.26 125.743 471.26 129.298V155.596C471.26 159.151 472.662 162.561 475.163 165.074C477.663 167.588 481.053 169 484.589 169H512.291C515.828 169 519.222 167.588 521.723 165.074C524.224 162.561 525.629 159.151 525.63 155.596V129.298C525.629 125.743 524.224 122.333 521.723 119.819C519.222 117.306 515.828 115.894 512.291 115.894Z" fill="#00B4FF"/>
<path d="M538.017 129.043V168.995H539.561C541.956 168.995 544.256 168.038 545.95 166.335C547.643 164.633 548.591 162.324 548.591 159.916V129.848C548.59 129.285 548.701 128.728 548.915 128.207C549.129 127.687 549.446 127.214 549.842 126.815C550.238 126.417 550.709 126.101 551.227 125.886C551.745 125.671 552.299 125.56 552.859 125.561H564.859C565.42 125.56 565.978 125.671 566.496 125.886C567.015 126.101 567.484 126.417 567.881 126.815C568.278 127.213 568.593 127.686 568.808 128.206C569.023 128.727 569.137 129.285 569.137 129.848V159.916C569.137 161.108 569.368 162.289 569.822 163.391C570.276 164.493 570.94 165.494 571.778 166.337C572.617 167.18 573.617 167.849 574.713 168.305C575.809 168.761 576.981 168.996 578.167 168.995H580.309V129.621C580.31 129.057 580.418 128.499 580.633 127.979C580.848 127.458 581.163 126.985 581.56 126.587C581.957 126.189 582.432 125.873 582.95 125.658C583.468 125.443 584.021 125.333 584.582 125.333H595.074C595.634 125.333 596.188 125.443 596.706 125.658C597.224 125.873 597.695 126.189 598.091 126.588C598.487 126.986 598.803 127.459 599.017 127.979C599.232 128.5 599.337 129.057 599.337 129.621V159.916C599.337 162.324 600.289 164.633 601.983 166.335C603.676 168.038 605.977 168.995 608.372 168.995H609.005V129.043C609.006 127.316 608.668 125.607 608.011 124.011C607.355 122.416 606.394 120.966 605.18 119.745C603.966 118.524 602.524 117.556 600.938 116.895C599.351 116.234 597.651 115.894 595.934 115.894H580.376C579.168 115.892 578 116.333 577.091 117.134L575.176 118.809L573.277 117.134C572.367 116.335 571.2 115.894 569.992 115.894H551.108C549.39 115.893 547.687 116.231 546.099 116.892C544.511 117.552 543.068 118.52 541.852 119.741C540.636 120.963 539.673 122.413 539.015 124.009C538.357 125.605 538.017 127.315 538.017 129.043Z" fill="#00B4FF"/>
<path d="M396.469 168.921C400.391 168.921 403.57 165.724 403.57 161.781C403.57 157.839 400.391 154.642 396.469 154.642C392.547 154.642 389.368 157.839 389.368 161.781C389.368 165.724 392.547 168.921 396.469 168.921Z" fill="#00B4FF"/>
</g>
<defs>
<clipPath id="clip0_1_2612">
<rect width="485" height="106" fill="white" transform="translate(124 63)"/>
</clipPath>
</defs>
</svg>
