<svg width="20" height="17" viewBox="0 0 20 17" fill="none" xmlns="http://www.w3.org/2000/svg">
<path d="M1.5 16.5C1.1 16.5 0.75 16.35 0.45 16.05C0.15 15.75 0 15.4 0 15V2C0 1.6 0.15 1.25 0.45 0.95C0.75 0.65 1.1 0.5 1.5 0.5H18.5C18.9 0.5 19.25 0.65 19.55 0.95C19.85 1.25 20 1.6 20 2V15C20 15.4 19.85 15.75 19.55 16.05C19.25 16.35 18.9 16.5 18.5 16.5H1.5ZM18.5 3.375L10.4 8.675C10.3333 8.70833 10.2708 8.7375 10.2125 8.7625C10.1542 8.7875 10.0833 8.8 10 8.8C9.91667 8.8 9.84583 8.7875 9.7875 8.7625C9.72917 8.7375 9.66667 8.70833 9.6 8.675L1.5 3.375V15H18.5V3.375ZM10 7.45L18.4 2H1.625L10 7.45ZM1.5 3.55V2.56708V2.58538V2V2.575V2.5522V3.55Z" fill="#9D9D9F"/>
</svg>
