<svg width="18" height="19" viewBox="0 0 18 19" fill="none" xmlns="http://www.w3.org/2000/svg">
<path d="M16.875 18.5C14.8417 18.5 12.8208 18 10.8125 17C8.80417 16 7 14.7 5.4 13.1C3.8 11.5 2.5 9.69583 1.5 7.6875C0.5 5.67917 0 3.65833 0 1.625C0 1.30833 0.108333 1.04167 0.325 0.825C0.541667 0.608333 0.808333 0.5 1.125 0.5H4.625C4.85833 0.5 5.0625 0.579167 5.2375 0.7375C5.4125 0.895833 5.525 1.10833 5.575 1.375L6.25 4.525C6.28333 4.75833 6.27917 4.97083 6.2375 5.1625C6.19583 5.35417 6.10833 5.51667 5.975 5.65L3.475 8.175C4.40833 9.725 5.45417 11.075 6.6125 12.225C7.77083 13.375 9.08333 14.35 10.55 15.15L12.925 12.7C13.0917 12.5167 13.2833 12.3875 13.5 12.3125C13.7167 12.2375 13.9333 12.225 14.15 12.275L17.125 12.925C17.375 12.975 17.5833 13.1 17.75 13.3C17.9167 13.5 18 13.7333 18 14V17.375C18 17.6917 17.8917 17.9583 17.675 18.175C17.4583 18.3917 17.1917 18.5 16.875 18.5Z" fill="#9D9D9F"/>
</svg>
